M48
; DRILL file {KiCad 7.0.9-7.0.9~ubuntu22.04.1} date Sun 31 Dec 2023 10:10:49 GMT
; FORMAT={-:-/ absolute / inch / decimal}
; #@! TF.CreationDate,2023-12-31T10:10:49+00:00
; #@! TF.GenerationSoftware,Kicad,Pcbnew,7.0.9-7.0.9~ubuntu22.04.1
; #@! TF.FileFunction,Plated,1,2,PTH
FMAT,2
INCH
; #@! TA.AperFunction,Plated,PTH,ViaDrill
T1C0.0118
; #@! TA.AperFunction,Plated,PTH,ComponentDrill
T2C0.0118
; #@! TA.AperFunction,Plated,PTH,ComponentDrill
T3C0.0197
; #@! TA.AperFunction,Plated,PTH,ComponentDrill
T4C0.0236
; #@! TA.AperFunction,Plated,PTH,ComponentDrill
T5C0.0295
; #@! TA.AperFunction,Plated,PTH,ComponentDrill
T6C0.0300
; #@! TA.AperFunction,Plated,PTH,ComponentDrill
T7C0.0335
; #@! TA.AperFunction,Plated,PTH,ComponentDrill
T8C0.0394
; #@! TA.AperFunction,Plated,PTH,ComponentDrill
T9C0.0469
; #@! TA.AperFunction,Plated,PTH,ComponentDrill
T10C0.1063
; #@! TA.AperFunction,Plated,PTH,ComponentDrill
T11C0.1260
%
G90
G05
T1
X3.3646Y-4.0209
X3.3665Y-3.9953
X3.4189Y-3.9988
X3.4197Y-3.9736
X3.5134Y-4.0469
X3.7173Y-5.0382
X3.7657Y-3.9496
X3.7957Y-4.0232
X3.798Y-4.9996
X3.8307Y-3.3236
X3.8406Y-3.2736
X3.9295Y-3.5949
X3.9429Y-1.9882
X3.9433Y-2.0374
X4.0035Y-1.6866
X4.0091Y-3.611
X4.0638Y-4.9598
X4.0661Y-5.0106
X4.1205Y-3.4248
X4.1327Y-3.6213
X4.1409Y-3.2421
X4.2587Y-5.0126
X4.5575Y-3.4343
X4.5776Y-3.1602
X4.59Y-3.436
X4.615Y-3.3949
X4.7512Y-3.4945
X4.7528Y-3.3673
X4.7693Y-3.2319
X4.7742Y-3.4697
X4.7952Y-3.4535
X4.8024Y-3.2953
X4.8354Y-3.2583
X4.9117Y-3.0657
X4.9165Y-2.1441
X4.9372Y-3.0676
X4.9386Y-2.1854
X4.9508Y-3.1654
X4.9638Y-3.0673
X4.9646Y-2.3543
X4.9893Y-3.0668
X4.9921Y-1.9843
X5.0144Y-3.0717
X5.0154Y-2.2232
X5.0224Y-2.0622
X5.026Y-3.224
X5.0315Y-2.2634
X5.04Y-3.0701
X5.0526Y-3.2907
X5.0653Y-3.0668
X5.0734Y-3.3116
X5.0756Y-3.3461
X5.0936Y-3.4104
X5.0949Y-3.476
X5.0962Y-3.4358
X5.0974Y-3.3261
X5.1366Y-2.9299
X5.1614Y-2.9374
X5.1941Y-3.1988
X5.2457Y-3.4192
X5.2551Y-3.2264
X5.2575Y-3.3965
X5.3031Y-2.6193
X5.3031Y-2.8413
X5.3039Y-3.0953
X5.3043Y-3.5366
X5.4331Y-3.0201
X5.4331Y-3.1197
X5.4331Y-3.2283
X5.4331Y-3.3437
X5.4331Y-3.5949
X5.5386Y-2.6598
X5.5386Y-4.2209
X5.772Y-2.2217
X5.7874Y-3.0201
X5.7874Y-3.1197
X5.7874Y-3.2283
X5.7874Y-3.3437
X5.7874Y-3.5949
X5.7886Y-4.374
X6.1024Y-3.0201
X6.1024Y-3.1197
X6.1024Y-3.2283
X6.1024Y-3.3437
X6.1024Y-3.5949
X6.192Y-3.6911
X6.1929Y-3.187
X6.216Y-2.5581
X6.2177Y-2.5276
X6.2257Y-3.7214
X6.2265Y-3.6886
X6.2311Y-2.6969
X6.2403Y-3.4322
X6.2494Y-2.7421
X6.2509Y-3.4673
X6.2659Y-3.3869
X6.2721Y-3.7892
X6.2768Y-2.3965
X6.2783Y-2.4965
X6.286Y-2.5965
X6.2987Y-3.3348
X6.301Y-3.801
X6.3173Y-3.9921
X6.3181Y-2.9528
X6.3398Y-4.0421
X6.3457Y-3.2122
X6.3458Y-3.8128
X6.3591Y-4.0748
X6.3661Y-3.2935
X6.3671Y-2.9012
X6.3858Y-3.4969
X6.3858Y-4.2953
X6.4004Y-3.45
X6.4063Y-3.1665
X6.4146Y-3.7843
X6.4282Y-3.7582
X6.529Y-3.6313
X6.6299Y-2.9504
T2
X5.3184Y-2.1537
X5.3184Y-2.201
X5.3184Y-2.2482
X5.3656Y-2.1537
X5.3656Y-2.201
X5.3656Y-2.2482
X5.4129Y-2.1537
X5.4129Y-2.201
X5.4129Y-2.2482
T3
X4.439Y-1.6941
X4.4882Y-1.6941
T5
X4.3394Y-5.028
X4.4181Y-5.028
T6
X3.326Y-2.3236
X3.326Y-2.4236
X3.326Y-4.2665
X3.326Y-4.3665
X3.3264Y-2.5594
X3.3264Y-2.6594
T7
X3.3155Y-3.8972
X3.3155Y-4.0941
T8
X3.3165Y-3.1465
X3.3165Y-3.2465
X3.3165Y-3.3465
X3.3165Y-3.4465
X3.3165Y-3.5465
X3.4165Y-3.1465
X3.4165Y-3.2465
X3.4165Y-3.3465
X3.4165Y-3.4465
X3.4165Y-3.5465
X6.4831Y-2.3969
X6.4831Y-2.4969
X6.4831Y-2.5969
X6.4831Y-2.6969
X6.4831Y-2.7969
X6.4831Y-2.8969
X6.4831Y-2.9969
X6.4831Y-3.0969
X6.4831Y-3.1969
X6.4831Y-3.2969
X6.4831Y-3.3969
X6.4831Y-3.4969
X6.4831Y-3.5969
X6.4831Y-3.6969
X6.4831Y-3.7969
X6.4831Y-3.8969
X6.4831Y-3.9969
X6.4831Y-4.0969
X6.4831Y-4.1969
X6.4831Y-4.2969
X6.5831Y-2.3969
X6.5831Y-2.4969
X6.5831Y-2.5969
X6.5831Y-2.6969
X6.5831Y-2.7969
X6.5831Y-2.8969
X6.5831Y-2.9969
X6.5831Y-3.0969
X6.5831Y-3.1969
X6.5831Y-3.2969
X6.5831Y-3.3969
X6.5831Y-3.4969
X6.5831Y-3.5969
X6.5831Y-3.6969
X6.5831Y-3.7969
X6.5831Y-3.8969
X6.5831Y-3.9969
X6.5831Y-4.0969
X6.5831Y-4.1969
X6.5831Y-4.2969
T9
X5.928Y-1.7063
X6.028Y-1.7063
X6.128Y-1.7063
T10
X6.5354Y-2.2047
X6.5354Y-4.4882
T11
X3.7008Y-2.126
X3.7008Y-4.5669
X6.1417Y-2.126
X6.1417Y-4.5669
T4
G00X3.1954Y-3.8579
M15
G01X3.2229Y-3.8579
M16
G05
G00X3.2229Y-4.1335
M15
G01X3.1954Y-4.1335
M16
G05
T0
M30
