%TF.GenerationSoftware,KiCad,Pcbnew,7.0.9-7.0.9~ubuntu22.04.1*%
%TF.CreationDate,2023-12-31T10:10:50+00:00*%
%TF.ProjectId,stm32_sbc_wifi,73746d33-325f-4736-9263-5f776966692e,A*%
%TF.SameCoordinates,Original*%
%TF.FileFunction,Paste,Top*%
%TF.FilePolarity,Positive*%
%FSLAX46Y46*%
G04 Gerber Fmt 4.6, Leading zero omitted, Abs format (unit mm)*
G04 Created by KiCad (PCBNEW 7.0.9-7.0.9~ubuntu22.04.1) date 2023-12-31 10:10:50*
%MOMM*%
%LPD*%
G01*
G04 APERTURE LIST*
G04 Aperture macros list*
%AMRoundRect*
0 Rectangle with rounded corners*
0 $1 Rounding radius*
0 $2 $3 $4 $5 $6 $7 $8 $9 X,Y pos of 4 corners*
0 Add a 4 corners polygon primitive as box body*
4,1,4,$2,$3,$4,$5,$6,$7,$8,$9,$2,$3,0*
0 Add four circle primitives for the rounded corners*
1,1,$1+$1,$2,$3*
1,1,$1+$1,$4,$5*
1,1,$1+$1,$6,$7*
1,1,$1+$1,$8,$9*
0 Add four rect primitives between the rounded corners*
20,1,$1+$1,$2,$3,$4,$5,0*
20,1,$1+$1,$4,$5,$6,$7,0*
20,1,$1+$1,$6,$7,$8,$9,0*
20,1,$1+$1,$8,$9,$2,$3,0*%
%AMFreePoly0*
4,1,9,3.862500,-0.866500,0.737500,-0.866500,0.737500,-0.450000,-0.737500,-0.450000,-0.737500,0.450000,0.737500,0.450000,0.737500,0.866500,3.862500,0.866500,3.862500,-0.866500,3.862500,-0.866500,$1*%
G04 Aperture macros list end*
%ADD10RoundRect,0.218750X-0.218750X-0.256250X0.218750X-0.256250X0.218750X0.256250X-0.218750X0.256250X0*%
%ADD11RoundRect,0.225000X0.225000X0.250000X-0.225000X0.250000X-0.225000X-0.250000X0.225000X-0.250000X0*%
%ADD12R,1.300000X0.900000*%
%ADD13FreePoly0,0.000000*%
%ADD14R,1.778000X2.032000*%
%ADD15RoundRect,0.250000X-0.450000X-0.425000X0.450000X-0.425000X0.450000X0.425000X-0.450000X0.425000X0*%
%ADD16RoundRect,0.225000X-0.225000X-0.250000X0.225000X-0.250000X0.225000X0.250000X-0.225000X0.250000X0*%
%ADD17R,1.700000X0.650000*%
%ADD18RoundRect,0.150000X-0.825000X-0.150000X0.825000X-0.150000X0.825000X0.150000X-0.825000X0.150000X0*%
%ADD19RoundRect,0.200000X-0.200000X-0.275000X0.200000X-0.275000X0.200000X0.275000X-0.200000X0.275000X0*%
%ADD20R,1.651000X1.651000*%
%ADD21RoundRect,0.250000X0.450000X0.425000X-0.450000X0.425000X-0.450000X-0.425000X0.450000X-0.425000X0*%
%ADD22R,2.700000X3.600000*%
%ADD23RoundRect,0.230000X-0.230000X-0.375000X0.230000X-0.375000X0.230000X0.375000X-0.230000X0.375000X0*%
%ADD24RoundRect,0.150000X-0.512500X-0.150000X0.512500X-0.150000X0.512500X0.150000X-0.512500X0.150000X0*%
%ADD25RoundRect,0.150000X-0.150000X0.587500X-0.150000X-0.587500X0.150000X-0.587500X0.150000X0.587500X0*%
%ADD26RoundRect,0.200000X0.200000X0.275000X-0.200000X0.275000X-0.200000X-0.275000X0.200000X-0.275000X0*%
%ADD27R,5.080000X5.080000*%
%ADD28R,0.600000X0.450000*%
%ADD29R,0.700000X1.400000*%
%ADD30R,1.900000X0.800000*%
%ADD31R,0.800000X1.900000*%
%ADD32R,3.700000X3.700000*%
%ADD33R,2.000000X2.400000*%
%ADD34RoundRect,0.075000X-0.700000X-0.075000X0.700000X-0.075000X0.700000X0.075000X-0.700000X0.075000X0*%
%ADD35RoundRect,0.075000X-0.075000X-0.700000X0.075000X-0.700000X0.075000X0.700000X-0.075000X0.700000X0*%
G04 APERTURE END LIST*
D10*
%TO.C,L1*%
X92992500Y-100320000D03*
X94567500Y-100320000D03*
%TD*%
D11*
%TO.C,C4*%
X104075000Y-47270000D03*
X102525000Y-47270000D03*
%TD*%
D12*
%TO.C,U6*%
X105985000Y-101880000D03*
D13*
X106072500Y-103380000D03*
D12*
X105985000Y-104880000D03*
%TD*%
D14*
%TO.C,D2*%
X115605000Y-115187500D03*
X111795000Y-115187500D03*
%TD*%
D15*
%TO.C,C6*%
X106085000Y-107260000D03*
X108785000Y-107260000D03*
%TD*%
D16*
%TO.C,C10*%
X105710000Y-97400000D03*
X107260000Y-97400000D03*
%TD*%
D11*
%TO.C,C14*%
X109065000Y-81260000D03*
X107515000Y-81260000D03*
%TD*%
D17*
%TO.C,U1*%
X95770000Y-83145000D03*
X95770000Y-84415000D03*
X95770000Y-85685000D03*
X95770000Y-86955000D03*
X103070000Y-86955000D03*
X103070000Y-85685000D03*
X103070000Y-84415000D03*
X103070000Y-83145000D03*
%TD*%
D16*
%TO.C,C26*%
X159315000Y-111115000D03*
X160865000Y-111115000D03*
%TD*%
D15*
%TO.C,C8*%
X105935000Y-99440000D03*
X108635000Y-99440000D03*
%TD*%
D18*
%TO.C,U2*%
X98605000Y-49225000D03*
X98605000Y-50495000D03*
X98605000Y-51765000D03*
X98605000Y-53035000D03*
X103555000Y-53035000D03*
X103555000Y-51765000D03*
X103555000Y-50495000D03*
X103555000Y-49225000D03*
%TD*%
D19*
%TO.C,R14*%
X94285000Y-41640000D03*
X95935000Y-41640000D03*
%TD*%
D18*
%TO.C,U9*%
X98675000Y-41625000D03*
X98675000Y-42895000D03*
X98675000Y-44165000D03*
X98675000Y-45435000D03*
X103625000Y-45435000D03*
X103625000Y-44165000D03*
X103625000Y-42895000D03*
X103625000Y-41625000D03*
%TD*%
D11*
%TO.C,C11*%
X109065000Y-83350000D03*
X107515000Y-83350000D03*
%TD*%
D20*
%TO.C,J5*%
X135827000Y-116113800D03*
X135827000Y-123886200D03*
%TD*%
D21*
%TO.C,C25*%
X160930000Y-109115000D03*
X158230000Y-109115000D03*
%TD*%
D11*
%TO.C,C27*%
X133545000Y-72160000D03*
X131995000Y-72160000D03*
%TD*%
D19*
%TO.C,R17*%
X160180000Y-60870000D03*
X161830000Y-60870000D03*
%TD*%
D11*
%TO.C,C13*%
X109065000Y-79020000D03*
X107515000Y-79020000D03*
%TD*%
D22*
%TO.C,L3*%
X100820000Y-116330000D03*
X109120000Y-116330000D03*
%TD*%
D19*
%TO.C,R2*%
X87565000Y-110920000D03*
X89215000Y-110920000D03*
%TD*%
D16*
%TO.C,C23*%
X131885000Y-78650000D03*
X133435000Y-78650000D03*
%TD*%
D11*
%TO.C,C1*%
X106025000Y-127240000D03*
X104475000Y-127240000D03*
%TD*%
%TO.C,C18*%
X108095000Y-41600000D03*
X106545000Y-41600000D03*
%TD*%
D19*
%TO.C,R15*%
X160243000Y-63410000D03*
X161893000Y-63410000D03*
%TD*%
D16*
%TO.C,C21*%
X159855000Y-90555000D03*
X161405000Y-90555000D03*
%TD*%
D23*
%TO.C,U3*%
X98410000Y-125890000D03*
X98410000Y-127390000D03*
X99550000Y-125890000D03*
X99550000Y-127390000D03*
D18*
X96505000Y-124735000D03*
X96505000Y-126005000D03*
X96505000Y-127275000D03*
X96505000Y-128545000D03*
X101455000Y-128545000D03*
X101455000Y-127275000D03*
X101455000Y-126005000D03*
X101455000Y-124735000D03*
%TD*%
D21*
%TO.C,C32*%
X116830000Y-111950000D03*
X114130000Y-111950000D03*
%TD*%
D19*
%TO.C,R8*%
X111125000Y-89450000D03*
X112775000Y-89450000D03*
%TD*%
D16*
%TO.C,C29*%
X136362500Y-64310000D03*
X137912500Y-64310000D03*
%TD*%
D24*
%TO.C,U4*%
X88102500Y-100300000D03*
X88102500Y-101250000D03*
X88102500Y-102200000D03*
X90377500Y-102200000D03*
X90377500Y-101250000D03*
X90377500Y-100300000D03*
%TD*%
D25*
%TO.C,U7*%
X121160000Y-41460000D03*
X119260000Y-41460000D03*
X120210000Y-43335000D03*
%TD*%
D19*
%TO.C,R11*%
X131825000Y-76800000D03*
X133475000Y-76800000D03*
%TD*%
D10*
%TO.C,L2*%
X92972500Y-102190000D03*
X94547500Y-102190000D03*
%TD*%
D16*
%TO.C,C2*%
X94325000Y-49240000D03*
X95875000Y-49240000D03*
%TD*%
D21*
%TO.C,C28*%
X160960000Y-106675000D03*
X158260000Y-106675000D03*
%TD*%
D26*
%TO.C,R12*%
X149555000Y-111130000D03*
X147905000Y-111130000D03*
%TD*%
D11*
%TO.C,C24*%
X132945000Y-91270000D03*
X131395000Y-91270000D03*
%TD*%
D16*
%TO.C,C17*%
X147985000Y-109420000D03*
X149535000Y-109420000D03*
%TD*%
D19*
%TO.C,R5*%
X104365000Y-124700000D03*
X106015000Y-124700000D03*
%TD*%
%TO.C,R10*%
X115925000Y-119570000D03*
X117575000Y-119570000D03*
%TD*%
D16*
%TO.C,C7*%
X105990000Y-109220000D03*
X107540000Y-109220000D03*
%TD*%
D26*
%TO.C,R4*%
X105995000Y-123060000D03*
X104345000Y-123060000D03*
%TD*%
D15*
%TO.C,C31*%
X136280000Y-66510000D03*
X138980000Y-66510000D03*
%TD*%
D16*
%TO.C,C9*%
X111225000Y-87820000D03*
X112775000Y-87820000D03*
%TD*%
D19*
%TO.C,R16*%
X160243000Y-65950000D03*
X161893000Y-65950000D03*
%TD*%
D16*
%TO.C,C22*%
X159825000Y-88865000D03*
X161375000Y-88865000D03*
%TD*%
D26*
%TO.C,R9*%
X117575000Y-117950000D03*
X115925000Y-117950000D03*
%TD*%
D24*
%TO.C,U5*%
X111902500Y-117707500D03*
X111902500Y-118657500D03*
X111902500Y-119607500D03*
X114177500Y-119607500D03*
X114177500Y-118657500D03*
X114177500Y-117707500D03*
%TD*%
D16*
%TO.C,C16*%
X132705000Y-82970000D03*
X134255000Y-82970000D03*
%TD*%
D15*
%TO.C,C5*%
X114200000Y-122950000D03*
X116900000Y-122950000D03*
%TD*%
D16*
%TO.C,C3*%
X101545000Y-81180000D03*
X103095000Y-81180000D03*
%TD*%
D26*
%TO.C,R7*%
X89365000Y-61510000D03*
X87715000Y-61510000D03*
%TD*%
D27*
%TO.C,J6*%
X148628600Y-120000000D03*
X123000000Y-120000000D03*
%TD*%
D16*
%TO.C,C20*%
X117135000Y-91450000D03*
X118685000Y-91450000D03*
%TD*%
D28*
%TO.C,D5*%
X149730000Y-113380000D03*
X147630000Y-113380000D03*
%TD*%
D16*
%TO.C,C15*%
X131405000Y-93210000D03*
X132955000Y-93210000D03*
%TD*%
D29*
%TO.C,Y2*%
X115360000Y-81410000D03*
X113960000Y-81410000D03*
%TD*%
D30*
%TO.C,U10*%
X144136550Y-59505000D03*
X144136550Y-58489000D03*
X144136550Y-57473000D03*
X144136550Y-56457000D03*
X144136550Y-52393000D03*
X144136550Y-50361000D03*
X144136550Y-49345000D03*
X144136550Y-48329000D03*
X144136550Y-47313000D03*
X129406550Y-49351000D03*
X129406550Y-50367000D03*
X129406550Y-51383000D03*
X129406550Y-52399000D03*
X129406550Y-53415000D03*
X129406550Y-54431000D03*
X129406550Y-55447000D03*
X129406550Y-56463000D03*
X129406550Y-57479000D03*
X129406550Y-58495000D03*
D31*
X131306550Y-62175000D03*
X134354550Y-62175000D03*
X135370550Y-62175000D03*
X136386550Y-62175000D03*
X137402550Y-62175000D03*
X138418550Y-62175000D03*
X139434550Y-62175000D03*
X140450550Y-62175000D03*
X141466550Y-62175000D03*
D32*
X136286550Y-55905000D03*
%TD*%
D19*
%TO.C,R1*%
X92775000Y-126530000D03*
X94425000Y-126530000D03*
%TD*%
D26*
%TO.C,R3*%
X99950000Y-123030000D03*
X98300000Y-123030000D03*
%TD*%
D33*
%TO.C,Y1*%
X111210000Y-84480000D03*
X114910000Y-84480000D03*
%TD*%
D16*
%TO.C,C12*%
X107495000Y-85670000D03*
X109045000Y-85670000D03*
%TD*%
%TO.C,C19*%
X116965000Y-78550000D03*
X118515000Y-78550000D03*
%TD*%
D26*
%TO.C,R6*%
X89365000Y-67580000D03*
X87715000Y-67580000D03*
%TD*%
D16*
%TO.C,C30*%
X159525000Y-104665000D03*
X161075000Y-104665000D03*
%TD*%
D34*
%TO.C,U8*%
X119325000Y-81250000D03*
X119325000Y-81750000D03*
X119325000Y-82250000D03*
X119325000Y-82750000D03*
X119325000Y-83250000D03*
X119325000Y-83750000D03*
X119325000Y-84250000D03*
X119325000Y-84750000D03*
X119325000Y-85250000D03*
X119325000Y-85750000D03*
X119325000Y-86250000D03*
X119325000Y-86750000D03*
X119325000Y-87250000D03*
X119325000Y-87750000D03*
X119325000Y-88250000D03*
X119325000Y-88750000D03*
D35*
X121250000Y-90675000D03*
X121750000Y-90675000D03*
X122250000Y-90675000D03*
X122750000Y-90675000D03*
X123250000Y-90675000D03*
X123750000Y-90675000D03*
X124250000Y-90675000D03*
X124750000Y-90675000D03*
X125250000Y-90675000D03*
X125750000Y-90675000D03*
X126250000Y-90675000D03*
X126750000Y-90675000D03*
X127250000Y-90675000D03*
X127750000Y-90675000D03*
X128250000Y-90675000D03*
X128750000Y-90675000D03*
D34*
X130675000Y-88750000D03*
X130675000Y-88250000D03*
X130675000Y-87750000D03*
X130675000Y-87250000D03*
X130675000Y-86750000D03*
X130675000Y-86250000D03*
X130675000Y-85750000D03*
X130675000Y-85250000D03*
X130675000Y-84750000D03*
X130675000Y-84250000D03*
X130675000Y-83750000D03*
X130675000Y-83250000D03*
X130675000Y-82750000D03*
X130675000Y-82250000D03*
X130675000Y-81750000D03*
X130675000Y-81250000D03*
D35*
X128750000Y-79325000D03*
X128250000Y-79325000D03*
X127750000Y-79325000D03*
X127250000Y-79325000D03*
X126750000Y-79325000D03*
X126250000Y-79325000D03*
X125750000Y-79325000D03*
X125250000Y-79325000D03*
X124750000Y-79325000D03*
X124250000Y-79325000D03*
X123750000Y-79325000D03*
X123250000Y-79325000D03*
X122750000Y-79325000D03*
X122250000Y-79325000D03*
X121750000Y-79325000D03*
X121250000Y-79325000D03*
%TD*%
D19*
%TO.C,R13*%
X94265000Y-43370000D03*
X95915000Y-43370000D03*
%TD*%
%TO.C,R18*%
X123415000Y-49400000D03*
X125065000Y-49400000D03*
%TD*%
M02*
